<svg width="48" height="48" viewBox="0 0 48 48" fill="none" xmlns="http://www.w3.org/2000/svg">
<rect width="48" height="48" rx="8" fill="#25B562"/>
<path fill-rule="evenodd" clip-rule="evenodd" d="M16.0038 9C14.3589 9 13 10.3509 13 11.9958V35.9946C13.0047 36.7898 13.3227 37.5511 13.885 38.1134C14.4473 38.6757 15.2086 38.9937 16.0038 38.9984H31.999C32.7944 38.9937 33.5559 38.6758 34.1185 38.1135C34.6812 37.5513 34.9996 36.79 35.0049 35.9946V11.9958C35.0049 10.3509 33.6439 9 31.999 9H16.0038ZM16.0038 10.9919H31.999C32.1316 10.989 32.2635 11.013 32.3866 11.0625C32.5097 11.1119 32.6215 11.1858 32.7153 11.2796C32.8091 11.3734 32.8829 11.4852 32.9324 11.6083C32.9818 11.7314 33.0058 11.8632 33.003 11.9958V12.9958H14.9999V11.9958C14.997 11.8632 15.021 11.7314 15.0705 11.6083C15.1199 11.4852 15.1938 11.3734 15.2876 11.2796C15.3814 11.1858 15.4932 11.1119 15.6163 11.0625C15.7394 11.013 15.8712 10.989 16.0038 10.9919ZM14.9999 14.9957H33.003V32.9948H30.0011C28.6492 32.9748 28.6492 35.0146 30.0011 34.9946H33.003V35.9946C33.0058 36.1272 32.9818 36.2591 32.9324 36.3822C32.8829 36.5053 32.8091 36.6171 32.7153 36.7109C32.6215 36.8047 32.5097 36.8785 32.3866 36.928C32.2635 36.9774 32.1316 37.0014 31.999 36.9985H16.0038C15.8712 37.0014 15.7394 36.9774 15.6163 36.928C15.4932 36.8785 15.3814 36.8047 15.2876 36.7109C15.1938 36.6171 15.1199 36.5053 15.0705 36.3822C15.021 36.2591 14.997 36.1272 14.9999 35.9946V34.9946H26.0013C27.3533 35.0146 27.3533 32.9748 26.0013 32.9948H14.9999V14.9957Z" fill="white"/>
</svg>
