<svg width="72" height="24" viewBox="0 0 72 24" fill="none" xmlns="http://www.w3.org/2000/svg">
<g clip-path="url(#clip0_3441_10773)">
<path fill-rule="evenodd" clip-rule="evenodd" d="M0.472068 12.6L2.47207 9.46667C2.53873 9.33333 2.67207 9.13333 2.73874 9L4.4054 6.46667C4.6054 6.2 4.87207 5.93333 5.2054 5.73333L9.8054 3.06667L10.8721 0.866667C11.2054 0.333333 11.8054 0 12.3387 0C12.5387 0 12.6721 0 12.8054 0.0666667L20.2721 2.6C20.6054 2.66667 20.9387 2.93333 21.2054 3.2L23.2054 5.33333C23.4054 5.53333 23.6054 5.8 23.6721 6L25.2721 9C25.4721 9.4 25.5387 9.86667 25.4721 10.2667L24.4721 15.7333L24.8054 16.0667C25.2721 16.5333 25.4054 17.2 25.2054 17.8L25.0721 18.2667C24.8721 18.8667 24.2721 19.2667 23.6721 19.2667C23.4054 19.2667 23.2054 19.2 23.0054 19.1333L22.5387 18.8667C22.4054 18.7333 22.1387 18.6667 22.0054 18.5333L21.3387 18.2C20.8054 17.8667 20.4721 17.2667 20.4721 16.6667L20.6721 12L19.9387 12.2667L18.4054 19.2667C18.2721 20 17.6054 20.5333 16.8721 20.5333H14.7387C14.0721 20.5333 13.4054 20.0667 13.2054 19.4L12.2721 16.6L10.8054 16.7333L9.33874 19.6C9.07207 20.1333 8.47207 20.5333 7.8054 20.5333H5.47207C4.73874 20.5333 4.07207 19.9333 3.93874 19.2L3.13873 14.2L2.4054 14.5333C2.13874 14.7333 1.87207 14.6667 1.6054 14.6667C1.13874 14.6667 0.672068 14.4 0.472068 14C0.272068 13.8 0.072068 13.2 0.472068 12.6ZM18.6721 11.1333L18.8054 11.0667C18.8721 11.0667 18.9387 11 19.0054 11L20.4054 10.4667C20.5387 10.4 20.8054 10.3333 20.9387 10.3333L21.7387 10.1333H21.8054C21.9387 10.1333 22.0054 10.2 22.1387 10.2667C22.2054 10.3333 22.2721 10.4667 22.2721 10.6L22.0721 16.7333L22.1387 16.8667L22.8054 17.2C22.8721 17.3333 23.0721 17.4 23.2054 17.4667L23.6721 17.6667L23.8054 17.2667V17.1333L23.1387 16.4667C23.0054 16.3333 22.8721 16.0667 22.9387 15.8L24.0054 10C24.0054 9.93333 24.0054 9.73333 23.9387 9.66667L22.3387 6.66667C22.2721 6.53333 22.1387 6.4 22.0721 6.33333L20.0721 4.2C20.0054 4.13333 19.8721 4.06667 19.7387 4L12.4054 1.53333L11.2054 3.86667C11.1387 3.93333 11.1387 4 11.1387 4.06667L11.4054 7.6L15.6721 11.5333L18.6721 11.1333ZM3.53874 12.0667C3.67207 12 3.8054 11.9333 3.93874 11.9333C4.27207 11.9333 4.33874 12 4.4054 12.3333L5.53874 18.7333H7.73874L9.4054 15.5333C9.53874 15.2667 9.87207 15.0667 10.1387 15L12.8054 14.7333H12.8721C13.2054 14.7333 13.5387 14.9333 13.6721 15.2667L14.8054 18.6667H16.7387L18.0721 12.8L16.0054 13.0667C15.8721 13.0667 15.8054 13.0667 15.6721 13.0667C15.2721 13.0667 14.8721 12.9333 14.6054 12.6667L10.0721 8.46667C9.73874 8.13333 9.53874 7.66667 9.53874 7.26667V5L6.2054 7.2L6.0054 7.4L4.2054 9.93333C4.13874 10.0667 4.0054 10.2 3.93874 10.3333C3.93874 10.3333 1.73874 13 1.87207 13.1333C1.93874 13.3333 3.53874 12.0667 3.53874 12.0667Z" fill="#374151"/>
<path fill-rule="evenodd" clip-rule="evenodd" d="M40.3337 9.86668C40.9337 10 41.2003 10.2667 41.1337 10.8L38.9337 18.8667C38.867 19.4667 38.467 19.8 37.8003 19.8C37.1337 19.8 36.667 19.5334 36.5337 19L34.867 12.4667L33.3337 18.8667C33.2003 19.4667 32.7337 19.7334 32.067 19.7334C31.3337 19.7334 30.9337 19.4667 30.8003 18.8L28.867 10.7333C28.667 10.2667 28.867 9.93335 29.467 9.73335C30.067 9.60002 30.467 9.73335 30.667 10.1333L32.1337 16.6667L33.6003 10.5333C33.7337 10.0667 34.067 9.86668 34.7337 9.86668C35.4003 9.86668 35.8003 10.0667 36.0003 10.5333L37.667 16.5333L39.267 10.2C39.3337 9.93335 39.667 9.80002 40.3337 9.86668Z" fill="#374151"/>
<path fill-rule="evenodd" clip-rule="evenodd" d="M49.7333 9.66675C49 9.66675 48.6667 9.86675 48.7333 10.3334V10.8667C48.3333 10.2667 47.8 9.93341 47.1333 9.80008C46.4667 9.66675 45.8 9.73341 45.0667 9.86675C44.3333 10.0667 43.6667 10.5334 42.9333 11.2667C42.2 12.0667 41.8 13.1334 41.6667 14.4667C41.5333 15.8001 41.8667 17.0001 42.5333 18.0001C43.2667 19.0001 44.2 19.5334 45.4667 19.6667C46.7333 19.8001 47.8 19.2667 48.8 18.0001V18.9334C48.8 19.4001 49.1333 19.6667 49.7333 19.6667C50.4 19.6667 50.6667 19.4001 50.7333 18.9334V10.3334C50.8 9.93341 50.4667 9.66675 49.7333 9.66675ZM48.7333 15.6667C48.2667 16.9334 47.4 17.6001 46.1333 17.6667C44.9333 17.6667 44.1333 17.2667 43.7333 16.3334C43.4 15.4001 43.4 14.4667 43.8 13.5334C44.2 12.6001 44.7333 12.0001 45.4667 11.8001C46.2 11.6001 46.8 11.6001 47.3333 11.8667C47.8667 12.1334 48.3333 12.5334 48.6667 13.0667V15.6667H48.7333Z" fill="#374151"/>
<path fill-rule="evenodd" clip-rule="evenodd" d="M54.5332 15.9332C54.5999 16.9332 54.9999 17.5332 55.7332 17.7332C56.3999 18.1332 56.5332 18.5999 56.1999 19.1999C55.8666 19.7999 55.3332 19.9332 54.5332 19.5999C53.1332 18.9999 52.3999 17.9332 52.3999 16.5332V6.46655C52.3332 5.79989 52.6666 5.46655 53.4666 5.46655C54.2666 5.46655 54.5999 5.79989 54.4666 6.46655L54.5332 15.9332Z" fill="#374151"/>
<path fill-rule="evenodd" clip-rule="evenodd" d="M59.667 15.9332C59.7337 16.9332 60.1337 17.5332 60.867 17.7332C61.5337 18.1332 61.667 18.5999 61.3337 19.1999C61.0004 19.7999 60.467 19.9332 59.667 19.5999C58.267 18.9999 57.5337 17.9332 57.5337 16.5332V6.46655C57.467 5.79989 57.8004 5.46655 58.6004 5.46655C59.4004 5.46655 59.7337 5.79989 59.6004 6.46655L59.667 15.9332Z" fill="#374151"/>
<path fill-rule="evenodd" clip-rule="evenodd" d="M71.8003 11.3333L66.3336 23.3333C66.0669 24 65.6003 24.2 64.9336 23.8667C64.2669 23.5333 64.1336 23.0667 64.5336 22.4L66.2003 18.7333L62.4669 11.5333C62.0669 10.8 62.2003 10.2667 62.8003 9.93333C63.4669 9.66667 63.9336 9.86667 64.2669 10.6L67.3336 16.6667L69.9336 10.6667C70.2003 9.93333 70.6669 9.66667 71.3336 9.93333C72.0003 10.0667 72.1336 10.6 71.8003 11.3333Z" fill="#374151"/>
</g>
<defs>
<clipPath id="clip0_3441_10773">
<rect width="72" height="24" fill="white"/>
</clipPath>
</defs>
</svg>
