<svg width="48" height="48" viewBox="0 0 48 48" fill="none" xmlns="http://www.w3.org/2000/svg">
<rect width="48" height="48" rx="8" fill="#25B562"/>
<path d="M28.7097 12C32.6372 12 34.9894 14.3417 35 18.2517V29.7483C35 33.6583 32.6584 36 28.7204 36H25.2293C24.7816 35.9509 24.4427 35.5742 24.4427 35.1258C24.4427 34.6774 24.7816 34.3008 25.2293 34.2517H28.7097C31.7112 34.2517 33.2225 32.7364 33.2225 29.7483V18.2517C33.2225 15.2636 31.7112 13.7483 28.7097 13.7483H19.2796C16.2782 13.7483 14.7562 15.2636 14.7562 18.2517V29.7483C14.7562 32.7364 16.2782 34.2517 19.2796 34.2517C19.7273 34.3008 20.0662 34.6774 20.0662 35.1258C20.0662 35.5742 19.7273 35.9509 19.2796 36C15.3522 36 13 33.6583 13 29.7483V18.2517C13 14.3311 15.3522 12 19.2796 12H28.7097ZM28.3904 28.2119C28.8724 28.2119 29.2632 28.6009 29.2632 29.0808C29.2632 29.5607 28.8724 29.9497 28.3904 29.9497H19.5776C19.0956 29.9497 18.7049 29.5607 18.7049 29.0808C18.7049 28.6009 19.0956 28.2119 19.5776 28.2119H28.3904ZM28.3904 23.1258C28.7272 23.0889 29.0556 23.2469 29.2356 23.5327C29.4157 23.8184 29.4157 24.1816 29.2356 24.4673C29.0556 24.7531 28.7272 24.9111 28.3904 24.8742H19.5776C19.1299 24.825 18.7911 24.4484 18.7911 24C18.7911 23.5516 19.1299 23.175 19.5776 23.1258H28.3904ZM22.941 18.0503C23.3887 18.0995 23.7276 18.4761 23.7276 18.9245C23.7276 19.3729 23.3887 19.7495 22.941 19.7987H19.5883C19.1406 19.7495 18.8017 19.3729 18.8017 18.9245C18.8017 18.4761 19.1406 18.0995 19.5883 18.0503H22.941Z" fill="white"/>
</svg>
