<svg width="48" height="48" viewBox="0 0 48 48" fill="none" xmlns="http://www.w3.org/2000/svg">
<rect width="48" height="48" rx="8" fill="#25B562"/>
<path fill-rule="evenodd" clip-rule="evenodd" d="M36 19.7H12C11.8343 19.7 11.7 19.8343 11.7 20V29C11.7 29.1657 11.8343 29.3 12 29.3H36C36.1657 29.3 36.3 29.1657 36.3 29V20C36.3 19.8343 36.1657 19.7 36 19.7ZM12 18C10.8954 18 10 18.8954 10 20V29C10 30.1046 10.8954 31 12 31H36C37.1046 31 38 30.1046 38 29V20C38 18.8954 37.1046 18 36 18H12Z" fill="white"/>
<path fill-rule="evenodd" clip-rule="evenodd" d="M19 12.7H15C14.8343 12.7 14.7 12.8343 14.7 13V17C14.7 17.1657 14.8343 17.3 15 17.3H19C19.1657 17.3 19.3 17.1657 19.3 17V13C19.3 12.8343 19.1657 12.7 19 12.7ZM15 11C13.8954 11 13 11.8954 13 13V17C13 18.1046 13.8954 19 15 19H19C20.1046 19 21 18.1046 21 17V13C21 11.8954 20.1046 11 19 11H15Z" fill="white"/>
<path fill-rule="evenodd" clip-rule="evenodd" d="M19.6504 33.9999C19.6504 33.5305 20.0309 33.1499 20.5004 33.1499H27.5004C27.9698 33.1499 28.3504 33.5305 28.3504 33.9999C28.3504 34.4693 27.9698 34.8499 27.5004 34.8499H20.5004C20.0309 34.8499 19.6504 34.4693 19.6504 33.9999Z" fill="white"/>
<path fill-rule="evenodd" clip-rule="evenodd" d="M31.0004 18.8501C30.5309 18.8501 30.1504 18.4695 30.1504 18.0001L30.1504 13.0001C30.1504 12.5307 30.5309 12.1501 31.0004 12.1501C31.4698 12.1501 31.8504 12.5307 31.8504 13.0001L31.8504 18.0001C31.8504 18.4695 31.4698 18.8501 31.0004 18.8501Z" fill="white"/>
<path fill-rule="evenodd" clip-rule="evenodd" d="M34 9.7H28C27.8343 9.7 27.7 9.83431 27.7 10V11C27.7 11.1657 27.8343 11.3 28 11.3H34C34.1657 11.3 34.3 11.1657 34.3 11V10C34.3 9.83431 34.1657 9.7 34 9.7ZM28 8C26.8954 8 26 8.89543 26 10V11C26 12.1046 26.8954 13 28 13H34C35.1046 13 36 12.1046 36 11V10C36 8.89543 35.1046 8 34 8H28Z" fill="white"/>
<path fill-rule="evenodd" clip-rule="evenodd" d="M38 31.7H10C9.83431 31.7 9.7 31.8343 9.7 32V36C9.7 36.1657 9.83431 36.3 10 36.3H38C38.1657 36.3 38.3 36.1657 38.3 36V32C38.3 31.8343 38.1657 31.7 38 31.7ZM10 30C8.89543 30 8 30.8954 8 32V36C8 37.1046 8.89543 38 10 38H38C39.1046 38 40 37.1046 40 36V32C40 30.8954 39.1046 30 38 30H10Z" fill="white"/>
</svg>
