<svg width="32" height="32" viewBox="0 0 32 32" fill="none" xmlns="http://www.w3.org/2000/svg">
<g clip-path="url(#clip0_3441_10770)">
<path d="M16 32C24.8366 32 32 24.8366 32 16C32 7.16344 24.8366 0 16 0C7.16344 0 0 7.16344 0 16C0 24.8366 7.16344 32 16 32Z" fill="#25B562"/>
<path fill-rule="evenodd" clip-rule="evenodd" d="M24.6548 13.4801C24.5323 11.7926 24.2248 10.0501 22.0673 9.9226C18.0247 9.69214 13.9723 9.69214 9.92976 9.9226C7.77226 10.0476 7.46476 11.7926 7.34226 13.4801C7.21664 15.1578 7.21664 16.8425 7.34226 18.5201C7.46476 20.2076 7.77226 21.9501 9.92976 22.0776C13.9723 22.3081 18.0247 22.3081 22.0673 22.0776C24.2248 21.9526 24.5323 20.2076 24.6548 18.5201C24.7804 16.8425 24.7804 15.1578 24.6548 13.4801V13.4801ZM14.2498 18.2501V13.2501L18.9998 15.7501L14.2498 18.2501Z" fill="white"/>
</g>
<defs>
<clipPath id="clip0_3441_10770">
<rect width="32" height="32" fill="white"/>
</clipPath>
</defs>
</svg>
