<svg width="32" height="32" viewBox="0 0 32 32" fill="none" xmlns="http://www.w3.org/2000/svg">
<g clip-path="url(#clip0_3441_10756)">
<path d="M32 16C32 7.16344 24.8366 0 16 0C7.16344 0 0 7.16344 0 16C0 24.8366 7.16344 32 16 32C24.8366 32 32 24.8366 32 16Z" fill="#25B562"/>
<path d="M17.2763 25.031V16.4665H20.1512L20.5823 13.1287H17.2763V10.9976C17.2763 10.0313 17.5447 9.37276 18.9305 9.37276H20.698V6.38831C19.8425 6.2978 18.9827 6.25395 18.1224 6.25698C15.574 6.25698 13.8294 7.81239 13.8294 10.669V13.1287H10.9473V16.4665H13.8294V25.031H17.2763Z" fill="white"/>
</g>
<defs>
<clipPath id="clip0_3441_10756">
<rect width="32" height="32" fill="white"/>
</clipPath>
</defs>
</svg>
