<svg width="32" height="32" viewBox="0 0 32 32" fill="none" xmlns="http://www.w3.org/2000/svg">
<g clip-path="url(#clip0_3441_10760)">
<path d="M31.625 16.0549C31.625 24.6841 24.6291 31.6799 16 31.6799C7.37081 31.6799 0.375 24.6841 0.375 16.0549C0.375 7.42574 7.37081 0.429932 16 0.429932C24.6291 0.429932 31.625 7.42574 31.625 16.0549Z" fill="#25B562"/>
<path d="M25.3352 17.3116V23.7539H21.6007V17.7441C21.6007 16.2345 21.0621 15.2036 19.7089 15.2036C18.678 15.2036 18.0646 15.8986 17.794 16.5705C17.6947 16.8098 17.6702 17.143 17.6702 17.4803V23.754H13.9344C13.9344 23.754 13.9847 13.5744 13.9344 12.5206H17.6702V14.113C17.6635 14.1252 17.6526 14.1373 17.6457 14.1495H17.6702V14.113C18.1667 13.3488 19.052 12.2566 21.0362 12.2566C23.4938 12.2566 25.3352 13.8627 25.3352 17.3116V17.3116ZM10.0285 7.1062C8.75004 7.1062 7.91504 7.94533 7.91504 9.04695C7.91504 10.1254 8.7256 10.9875 9.97954 10.9875H10.0027C11.3055 10.9875 12.1161 10.1255 12.1161 9.04695C12.0916 7.94539 11.3055 7.1062 10.0285 7.1062V7.1062ZM8.13673 23.754H11.8699V12.5206H8.13673V23.754V23.754Z" fill="white"/>
</g>
<defs>
<clipPath id="clip0_3441_10760">
<rect width="32" height="32" fill="white"/>
</clipPath>
</defs>
</svg>
