<svg width="48" height="48" viewBox="0 0 48 48" fill="none" xmlns="http://www.w3.org/2000/svg">
<rect width="48" height="48" rx="8" fill="#25B562"/>
<g clip-path="url(#clip0_3441_10701)">
<path fill-rule="evenodd" clip-rule="evenodd" d="M24.3144 9.01723L19.3887 13.8129C18.2529 14.9354 17.9521 15.8794 18.0062 16.6033C18.0617 17.3448 18.5079 18.1132 19.3955 18.8305C21.1929 20.2831 24.4136 21.1883 27.487 20.9139C29.441 20.7394 30.9665 21.1169 32.03 22.0508C33.0873 22.9795 33.5039 24.2977 33.5942 25.6085C33.5963 25.6397 33.6104 25.6952 33.6628 25.7666C33.7161 25.8394 33.7948 25.9078 33.8842 25.955C33.9749 26.003 34.0449 26.0129 34.0779 26.012C34.0828 26.0119 34.0865 26.0115 34.0891 26.0112C35.4585 24.8065 36.8676 23.5655 37.5287 22.8945C37.9996 22.4165 38.0071 22.1234 37.9984 22.0218C37.9858 21.8758 37.9003 21.7401 37.8162 21.6567C35.8118 19.6717 32.8226 16.7799 30.2332 14.2845C29.1799 13.2695 28.191 12.3183 27.3624 11.5214C26.1603 10.3651 25.2955 9.53332 25.061 9.30179C24.8348 9.07837 24.6202 9.01202 24.4782 9.00157C24.3805 8.99437 24.3294 9.01159 24.3144 9.01723ZM22.938 7.56594C23.8058 6.71288 25.3989 6.82463 26.4663 7.8787C26.692 8.10163 27.534 8.91145 28.7161 10.0484C29.548 10.8485 30.5484 11.8107 31.621 12.8444C34.2096 15.339 37.2081 18.2397 39.2235 20.2357C39.5227 20.5321 39.9252 21.0847 39.991 21.8505C40.0607 22.6607 39.7371 23.5028 38.9533 24.2982C38.2311 25.0312 36.7582 26.3269 35.424 27.5006L35.4063 27.5162C34.6184 28.2092 33.614 28.0743 32.9498 27.7233C32.2872 27.3732 31.6624 26.6675 31.5989 25.746C31.5291 24.7331 31.2271 24.0076 30.7102 23.5536C30.1992 23.1048 29.2945 22.7604 27.6649 22.906C24.1861 23.2166 20.4187 22.2289 18.1384 20.386C16.987 19.4555 16.1219 18.2256 16.0118 16.7524C15.9004 15.2623 16.5793 13.7764 17.9858 12.3874L17.9909 12.3825L17.9909 12.3825L22.938 7.56594Z" fill="white"/>
<path d="M21.4241 26.0902C17.8406 26.4102 16.5637 24.6465 16.4036 22.3228C16.3353 21.3315 15.0005 20.5784 14.2543 21.2347C12.8996 22.4265 11.4526 23.6998 10.7591 24.4037C9.50441 25.6771 10.0969 26.6742 10.4803 27.0539C14.5 31.0348 22.4558 38.6389 23.2365 39.4098C24.0172 40.1808 24.9791 40.0982 25.3625 39.7196L30.3116 34.9011C35.4002 29.8761 27.9765 25.5051 21.4241 26.0902Z" fill="white"/>
</g>
<defs>
<clipPath id="clip0_3441_10701">
<rect width="34" height="34" fill="white" transform="translate(7 7)"/>
</clipPath>
</defs>
</svg>
