<svg width="96" height="32" viewBox="0 0 96 32" fill="none" xmlns="http://www.w3.org/2000/svg">
<g clip-path="url(#clip0_3441_10780)">
<path fill-rule="evenodd" clip-rule="evenodd" d="M0.630401 16.8L3.29707 12.6222C3.38596 12.4444 3.56374 12.1778 3.65262 12L5.87485 8.62222C6.14151 8.26667 6.49707 7.91111 6.94151 7.64444L13.0748 4.08889L14.4971 1.15556C14.9415 0.444444 15.7415 0 16.4526 0C16.7193 0 16.8971 0 17.0748 0.0888889L27.0304 3.46667C27.4748 3.55556 27.9193 3.91111 28.2748 4.26667L30.9415 7.11111C31.2082 7.37778 31.4748 7.73333 31.5637 8L33.6971 12C33.9637 12.5333 34.0526 13.1556 33.9637 13.6889L32.6304 20.9778L33.0748 21.4222C33.6971 22.0444 33.8748 22.9333 33.6082 23.7333L33.4304 24.3556C33.1637 25.1556 32.3637 25.6889 31.5637 25.6889C31.2082 25.6889 30.9415 25.6 30.6748 25.5111L30.0526 25.1556C29.8748 24.9778 29.5193 24.8889 29.3415 24.7111L28.4526 24.2667C27.7415 23.8222 27.2971 23.0222 27.2971 22.2222L27.5637 16L26.586 16.3556L24.5415 25.6889C24.3637 26.6667 23.4748 27.3778 22.4971 27.3778H19.6526C18.7637 27.3778 17.8748 26.7556 17.6082 25.8667L16.3637 22.1333L14.4082 22.3111L12.4526 26.1333C12.0971 26.8444 11.2971 27.3778 10.4082 27.3778H7.29707C6.31929 27.3778 5.4304 26.5778 5.25262 25.6L4.18596 18.9333L3.20818 19.3778C2.85262 19.6444 2.49707 19.5556 2.14151 19.5556C1.51929 19.5556 0.897068 19.2 0.630401 18.6667C0.363735 18.4 0.097068 17.6 0.630401 16.8ZM24.8971 14.8444L25.0748 14.7556C25.1637 14.7556 25.2526 14.6667 25.3415 14.6667L27.2082 13.9556C27.386 13.8667 27.7415 13.7778 27.9193 13.7778L28.986 13.5111H29.0748C29.2526 13.5111 29.3415 13.6 29.5193 13.6889C29.6082 13.7778 29.6971 13.9556 29.6971 14.1333L29.4304 22.3111L29.5193 22.4889L30.4082 22.9333C30.4971 23.1111 30.7637 23.2 30.9415 23.2889L31.5637 23.5556L31.7415 23.0222V22.8444L30.8526 21.9556C30.6748 21.7778 30.4971 21.4222 30.586 21.0667L32.0082 13.3333C32.0082 13.2444 32.0082 12.9778 31.9193 12.8889L29.786 8.88889C29.6971 8.71111 29.5193 8.53333 29.4304 8.44444L26.7637 5.6C26.6748 5.51111 26.4971 5.42222 26.3193 5.33333L16.5415 2.04444L14.9415 5.15556C14.8526 5.24444 14.8526 5.33333 14.8526 5.42222L15.2082 10.1333L20.8971 15.3778L24.8971 14.8444ZM4.71929 16.0889C4.89707 16 5.07485 15.9111 5.25262 15.9111C5.69707 15.9111 5.78596 16 5.87485 16.4444L7.38596 24.9778H10.3193L12.5415 20.7111C12.7193 20.3556 13.1637 20.0889 13.5193 20L17.0748 19.6444H17.1637C17.6082 19.6444 18.0526 19.9111 18.2304 20.3556L19.7415 24.8889H22.3193L24.0971 17.0667L21.3415 17.4222C21.1637 17.4222 21.0748 17.4222 20.8971 17.4222C20.3637 17.4222 19.8304 17.2444 19.4748 16.8889L13.4304 11.2889C12.986 10.8444 12.7193 10.2222 12.7193 9.68889V6.66667L8.27485 9.6L8.00818 9.86667L5.60818 13.2444C5.51929 13.4222 5.34151 13.6 5.25262 13.7778C5.25262 13.7778 2.31929 17.3333 2.49707 17.5111C2.58596 17.7778 4.71929 16.0889 4.71929 16.0889Z" fill="white"/>
<path fill-rule="evenodd" clip-rule="evenodd" d="M53.7776 13.1556C54.5776 13.3334 54.9331 13.6889 54.8442 14.4L51.9109 25.1556C51.822 25.9556 51.2887 26.4 50.3998 26.4C49.5109 26.4 48.8887 26.0445 48.7109 25.3334L46.4887 16.6222L44.4442 25.1556C44.2665 25.9556 43.6442 26.3111 42.7553 26.3111C41.7776 26.3111 41.2442 25.9556 41.0665 25.0667L38.4887 14.3111C38.222 13.6889 38.4887 13.2445 39.2887 12.9778C40.0887 12.8 40.622 12.9778 40.8887 13.5111L42.8442 22.2222L44.7998 14.0445C44.9776 13.4222 45.422 13.1556 46.3109 13.1556C47.1998 13.1556 47.7331 13.4222 47.9998 14.0445L50.222 22.0445L52.3553 13.6C52.4442 13.2445 52.8887 13.0667 53.7776 13.1556Z" fill="white"/>
<path fill-rule="evenodd" clip-rule="evenodd" d="M66.3108 12.8889C65.333 12.8889 64.8886 13.1556 64.9775 13.7778V14.4889C64.4441 13.6889 63.733 13.2445 62.8441 13.0667C61.9552 12.8889 61.0663 12.9778 60.0886 13.1556C59.1108 13.4222 58.2219 14.0445 57.2441 15.0222C56.2663 16.0889 55.733 17.5111 55.5552 19.2889C55.3775 21.0667 55.8219 22.6667 56.7108 24C57.6886 25.3334 58.933 26.0445 60.6219 26.2222C62.3108 26.4 63.733 25.6889 65.0663 24V25.2445C65.0663 25.8667 65.5108 26.2222 66.3108 26.2222C67.1997 26.2222 67.5552 25.8667 67.6441 25.2445V13.7778C67.733 13.2445 67.2886 12.8889 66.3108 12.8889ZM64.9775 20.8889C64.3552 22.5778 63.1997 23.4667 61.5108 23.5556C59.9108 23.5556 58.8441 23.0222 58.3108 21.7778C57.8663 20.5334 57.8663 19.2889 58.3997 18.0445C58.933 16.8 59.6441 16 60.6219 15.7334C61.5997 15.4667 62.3997 15.4667 63.1108 15.8222C63.8219 16.1778 64.4441 16.7111 64.8886 17.4222V20.8889H64.9775Z" fill="white"/>
<path fill-rule="evenodd" clip-rule="evenodd" d="M72.711 21.2444C72.7999 22.5777 73.3332 23.3777 74.311 23.6444C75.1999 24.1777 75.3776 24.7999 74.9332 25.5999C74.4888 26.3999 73.7776 26.5777 72.711 26.1333C70.8443 25.3333 69.8665 23.911 69.8665 22.0444V8.62215C69.7776 7.73326 70.2221 7.28882 71.2887 7.28882C72.3554 7.28882 72.7999 7.73326 72.6221 8.62215L72.711 21.2444Z" fill="white"/>
<path fill-rule="evenodd" clip-rule="evenodd" d="M79.5557 21.2444C79.6446 22.5777 80.1779 23.3777 81.1557 23.6444C82.0446 24.1777 82.2224 24.7999 81.7779 25.5999C81.3335 26.3999 80.6224 26.5777 79.5557 26.1333C77.689 25.3333 76.7113 23.911 76.7113 22.0444V8.62215C76.6224 7.73326 77.0668 7.28882 78.1335 7.28882C79.2001 7.28882 79.6446 7.73326 79.4668 8.62215L79.5557 21.2444Z" fill="white"/>
<path fill-rule="evenodd" clip-rule="evenodd" d="M95.7337 15.111L88.4448 31.111C88.0892 31.9999 87.467 32.2666 86.5781 31.8221C85.6892 31.3777 85.5115 30.7555 86.0448 29.8666L88.267 24.9777L83.2892 15.3777C82.7559 14.3999 82.9337 13.6888 83.7337 13.2444C84.6226 12.8888 85.2448 13.1555 85.6892 14.1333L89.7781 22.2221L93.2448 14.2221C93.6003 13.2444 94.2226 12.8888 95.1115 13.2444C96.0003 13.4221 96.1781 14.1333 95.7337 15.111Z" fill="white"/>
</g>
<defs>
<clipPath id="clip0_3441_10780">
<rect width="96" height="32" fill="white"/>
</clipPath>
</defs>
</svg>
