<svg width="32" height="32" viewBox="0 0 32 32" fill="none" xmlns="http://www.w3.org/2000/svg">
<g clip-path="url(#clip0_3441_10765)">
<path d="M31.625 16.0549C31.625 24.6841 24.6291 31.6799 16 31.6799C7.37081 31.6799 0.375 24.6841 0.375 16.0549C0.375 7.42574 7.37081 0.429932 16 0.429932C24.6291 0.429932 31.625 7.42574 31.625 16.0549Z" fill="#25B562"/>
<path d="M20.806 10.114C20.5924 10.114 20.3836 10.1773 20.206 10.296C20.0284 10.4147 19.89 10.5834 19.8082 10.7807C19.7265 10.978 19.7051 11.1952 19.7468 11.4047C19.7884 11.6142 19.8913 11.8066 20.0423 11.9577C20.1934 12.1087 20.3858 12.2116 20.5953 12.2532C20.8048 12.2949 21.022 12.2735 21.2193 12.1918C21.4166 12.11 21.5853 11.9716 21.704 11.794C21.8227 11.6164 21.886 11.4076 21.886 11.194C21.886 10.9076 21.7722 10.6329 21.5697 10.4303C21.3671 10.2278 21.0924 10.114 20.806 10.114V10.114ZM24.946 12.292C24.9285 11.5453 24.7886 10.8065 24.532 10.105C24.3032 9.50482 23.947 8.96135 23.488 8.512C23.0423 8.05068 22.4976 7.69676 21.895 7.477C21.1954 7.21254 20.4558 7.06949 19.708 7.054C18.754 7 18.448 7 16 7C13.552 7 13.246 7 12.292 7.054C11.5442 7.06949 10.8046 7.21254 10.105 7.477C9.50351 7.69898 8.95924 8.0526 8.512 8.512C8.05068 8.95766 7.69676 9.5024 7.477 10.105C7.21254 10.8046 7.06949 11.5442 7.054 12.292C7 13.246 7 13.552 7 16C7 18.448 7 18.754 7.054 19.708C7.06949 20.4558 7.21254 21.1954 7.477 21.895C7.69676 22.4976 8.05068 23.0423 8.512 23.488C8.95924 23.9474 9.50351 24.301 10.105 24.523C10.8046 24.7875 11.5442 24.9305 12.292 24.946C13.246 25 13.552 25 16 25C18.448 25 18.754 25 19.708 24.946C20.4558 24.9305 21.1954 24.7875 21.895 24.523C22.4976 24.3032 23.0423 23.9493 23.488 23.488C23.949 23.0403 24.3055 22.4964 24.532 21.895C24.7886 21.1935 24.9285 20.4547 24.946 19.708C24.946 18.754 25 18.448 25 16C25 13.552 25 13.246 24.946 12.292V12.292ZM23.326 19.6C23.3194 20.1713 23.216 20.7373 23.02 21.274C22.8763 21.6657 22.6455 22.0196 22.345 22.309C22.0531 22.6065 21.6999 22.8368 21.31 22.984C20.7733 23.18 20.2073 23.2834 19.636 23.29C18.736 23.335 18.403 23.344 16.036 23.344C13.669 23.344 13.336 23.344 12.436 23.29C11.8428 23.3011 11.2521 23.2098 10.69 23.02C10.3172 22.8653 9.98022 22.6355 9.7 22.345C9.40128 22.0559 9.17336 21.7017 9.034 21.31C8.81427 20.7656 8.6924 20.1867 8.674 19.6C8.674 18.7 8.62 18.367 8.62 16C8.62 13.633 8.62 13.3 8.674 12.4C8.67803 11.8159 8.78466 11.2372 8.989 10.69C9.14744 10.3101 9.39064 9.97149 9.7 9.7C9.97343 9.39055 10.3114 9.14479 10.69 8.98C11.2386 8.78204 11.8168 8.67857 12.4 8.674C13.3 8.674 13.633 8.62 16 8.62C18.367 8.62 18.7 8.62 19.6 8.674C20.1713 8.68055 20.7373 8.78402 21.274 8.98C21.683 9.13179 22.0501 9.37856 22.345 9.7C22.6399 9.97646 22.8704 10.3145 23.02 10.69C23.22 11.238 23.3236 11.8166 23.326 12.4C23.371 13.3 23.38 13.633 23.38 16C23.38 18.367 23.371 18.7 23.326 19.6ZM16 11.383C15.0872 11.3848 14.1955 11.6571 13.4374 12.1655C12.6793 12.6739 12.0889 13.3956 11.7409 14.2394C11.3928 15.0832 11.3027 16.0112 11.4818 16.9062C11.661 17.8013 12.1014 18.6231 12.7475 19.2679C13.3935 19.9127 14.2162 20.3515 15.1116 20.5289C16.0069 20.7064 16.9348 20.6144 17.7779 20.2647C18.621 19.915 19.3416 19.3232 19.8485 18.5641C20.3554 17.8051 20.626 16.9128 20.626 16C20.6272 15.3926 20.5083 14.7909 20.2761 14.2297C20.0439 13.6684 19.7031 13.1585 19.2732 12.7294C18.8433 12.3004 18.3328 11.9605 17.771 11.7294C17.2093 11.4984 16.6074 11.3806 16 11.383V11.383ZM16 18.997C15.4072 18.997 14.8278 18.8212 14.335 18.4919C13.8421 18.1626 13.458 17.6945 13.2311 17.1469C13.0043 16.5993 12.9449 15.9967 13.0606 15.4153C13.1762 14.834 13.4617 14.2999 13.8808 13.8808C14.2999 13.4617 14.834 13.1762 15.4153 13.0606C15.9967 12.9449 16.5993 13.0043 17.1469 13.2311C17.6945 13.458 18.1626 13.8421 18.4919 14.335C18.8212 14.8278 18.997 15.4072 18.997 16C18.997 16.3936 18.9195 16.7833 18.7689 17.1469C18.6183 17.5105 18.3975 17.8409 18.1192 18.1192C17.8409 18.3975 17.5105 18.6183 17.1469 18.7689C16.7833 18.9195 16.3936 18.997 16 18.997V18.997Z" fill="white"/>
</g>
<defs>
<clipPath id="clip0_3441_10765">
<rect width="32" height="32" fill="white"/>
</clipPath>
</defs>
</svg>
