<svg width="48" height="48" viewBox="0 0 48 48" fill="none" xmlns="http://www.w3.org/2000/svg">
<rect width="48" height="48" rx="8" fill="#25B562"/>
<path d="M34.026 16.5134C34.2934 16.7842 34.5226 17.1518 34.7135 17.6161C34.9045 18.0804 35 18.506 35 18.8929V35.6071C35 35.994 34.8663 36.3229 34.599 36.5937C34.3316 36.8646 34.0069 37 33.625 37H14.375C13.9931 37 13.6684 36.8646 13.401 36.5937C13.1337 36.3229 13 35.994 13 35.6071V12.3929C13 12.006 13.1337 11.6771 13.401 11.4062C13.6684 11.1354 13.9931 11 14.375 11H27.2083C27.5903 11 28.0104 11.0967 28.4688 11.2902C28.9271 11.4836 29.2899 11.7158 29.5573 11.9866L34.026 16.5134ZM27.6667 12.9732V18.4286H33.0521C32.9566 18.1481 32.8516 17.9498 32.737 17.8337L28.2539 13.2924C28.1393 13.1763 27.9436 13.0699 27.6667 12.9732ZM33.1667 35.1429V20.2857H27.2083C26.8264 20.2857 26.5017 20.1503 26.2344 19.8795C25.967 19.6086 25.8333 19.2798 25.8333 18.8929V12.8571H14.8333V35.1429H33.1667Z" fill="white"/>
</svg>
